<svg xmlns="http://www.w3.org/2000/svg" width="678.5" height="218.5"><path fill="#FFF" d="M104.903 101.181l-17.128-.035s-.523-1.961 1.173-3.006c1.697-1.045 4.026-2.154 2.851-5.418 0 0 1.759-.632 4.239 3.028 0 0-.447-2.538.297-5.444.688-2.68 2.16-3.575 2.16-3.575s1.045 2.161 2.982 3.877c2.354 2.077 3.275 2.444 3.668 6.097.391 3.654-.242 4.476-.242 4.476zm20.7-9.216s2.803-.631 3.702-4.014c0 0 4.217 4.089 2.91 9.961 0 0 2.336-.737 2.969-2.121 1.303-2.878 2.635-4.756 4.061-4.563 0 0-.641 2.844 1.667 6.33 1.921 2.901 3.579 3.678 3.579 3.678l-37.125.037s.915-3.917-.13-6.79c-1.046-2.873-2.255-4.623-2.255-4.623-.131-1.048.295-3.345 1.339-4.515 1.046-1.179 2.404-3.771 2.452-5.792 0 0 2.957 2.422 4.993 9.707 0 0 .663-3.538 2.741-5.612 1.095-1.101 2.394-1.567 2.394-1.567s1.257 4.711 6.703 9.884zm1.519-57.393s2.65-4.645 5.905-7.493c7.493-6.563 13.676-6.374 21.721.38l61.656 60.328c2.998 3.09 8.619 9.274 11.335 9.933 0 0-5.354 1.179-10.772-1.128-4.362-1.854-9.647-7.59-9.647-7.59L159.795 41.15s-1.142-1.417-2.413-.279c-1.235 1.106.185 2.415.185 2.415l51.754 51.26s3.146 2.652 6.535 3.45c0 0-5.742 1.39-13.583-2.717 0 0-3.23-2.298-5.715-4.779-2.478-2.478-40.576-40.915-40.576-40.915s-1.155-.957-2.176.121c-1.065 1.128.347 2.671.347 2.671l41.769 41.315s2.12 2.245 5.49 3.367c0 0-7.785.522-12.616-3.007-4.838-3.524-37.893-37.094-37.893-37.094s-1.423-.904-2.208.138c-.785 1.041-.127 2.092-.127 2.092l32.258 31.281s2.758 2.654 6.595 4.626c0 0-6.333.56-12.8-3.56-4.979-3.178-28.331-26.844-28.331-26.844s-1.457-1.906-2.825-.416c-1.203 1.303.851 2.767.851 2.767s22.233 23.647 25.98 23.554c0 0-5.134.938-20.032-8.905-11.593-7.655-15.926-16.114-15.926-16.114s2.341-11.424-7.216-31.005z"/><path fill-rule="evenodd" clip-rule="evenodd" fill="#FFF" d="M136.159 72.248s.677 1.949-2.47 3.298c-2.624 1.125-3.265 5.575-5.747 6.55 0 0-3.209-3.942-3.078-8.64.035-1.306.653-5.485.653-5.485s-2.875 0-6.268 1.829c-1.312.706-3.266 2.742-3.266 2.742s.979-1.824.526-3.839c-1.268-5.655-4.157-6.585-4.157-6.585s.103 1.676-1.986 4.157c-2.088 2.478-2.574 1.912-5.056 4.39-2.482 2.479-4.344 8.277-4.344 8.277s-1.087-1.807-1.891-2.966c-1.845-2.655-3.728-2.907-3.728-2.907s1.664 2.745-2.363 5.913c-3.503 2.758-.901 8.059-.901 8.059s-2.533-.783-5.657-.236c0 0-.371-.299-.515-1.704-.097-.939.819-2.108.819-2.108s-.589-.55-2.55.722c-1.492.963-2.079 2.074-4.11 6.986-1.12 2.695-1.985 5.615-4.31 5.615 0 0-1.438-.327-2.219-2.286-.925-2.31-.261-3.855-.261-3.855s-4.834 2.478-4.834 6.265c0 3.79 2.745 4.706 2.745 4.706l13.22-.111c0-2.616 2.157-4.717 3.625-5.243.332-.121 1.077-1.014 1.178-2.226.229-2.741-1.568-4.044-1.568-4.044 3.695-1.188 6.401.914 6.401.914-.133-1.568.563-3.06 1.574-4.714 1.455-2.394 4.362-2.186 4.362-2.186-.621 2.282 2.95 4.993 2.95 4.993 0-2.484 1.495-4.993 2.944-6.771 1.605-1.961.312-6.601.312-6.601 4.833 1.956 7.636 8.516 7.636 8.516 2.452-4.318 6.623-4.467 6.623-4.467s.249 2.355 1.572 4.858c1.399 2.644 3.628 5.196 3.628 5.196 2.113-.926 2.505-4.807 2.505-4.807s1.657-.274 4.046 3.035c1.422 1.956 2.235 5.655 2.235 5.655s1.866-4.369 5.057-4.148c1.434.099 2.481.265 2.481.265s-.783 1.029-.783 3.133c0 4.577 6.269 9.011 6.269 9.011l13.97.087s2.194-1.154 2.194-4.27c0-5.387-3.888-6.786-3.888-6.786.391 4.312-2.614 4.569-2.614 4.569s-.004-1.477-.657-2.514c-.653-1.048-1.964-1.798-3.391-2.969-2.15-1.764-1.047-4.313-1.047-4.313-3.875-.688-3.525 5.621-3.525 5.621s-2.913-2.443-3.619-5.632c-.626-2.805 1.867-3.116 1.867-3.116s-1.079-2.261-3.699-2.055c-2.478.192-4.733 3.226-4.733 3.226 1.784-6.16-2.157-11.004-2.157-11.004z"/><path fill-rule="evenodd" clip-rule="evenodd" fill="#FFF" d="M123.956 9.868s-.612 1.602-2.473.435c-1.03-.644-1.276-2.027-1.276-2.027s1.332-.264 2.605-.043c.869.148 1.352 1.001 1.144 1.635l4.504.056s-1.114-4.766-6.729-5.161c-5.617-.389-8.62-.128-8.62-.128s-2.089.259-3.134-1.439c-1.047-1.698-.654-2.351-.654-2.351s-3.266 2.096-3.266 6.006c0 2.611 1.831 4.577 1.831 4.577s-5.095 8.616-6.008 15.408c0 0 6.919 7.179 7.185 15.935h-1.83c-.654-2.484.223-8.433-8.36-15.416-9.099-7.405-18.746-3.103-24.05 1.61L12.481 92.332s-4.925 5.774-8.169 6.072c0 0 5.812 1.101 11.233-1.206 4.36-1.857 9.465-7.335 9.465-7.335L71.7 42.431s1.138-1.253 2.274-.078c1.073 1.113-.046 2.214-.046 2.214l-51.366 50.61s-2.247 2.542-5.642 3.345c0 0 9.004.258 13.128-2.686 0 0 3.135-2.136 5.618-4.618 2.479-2.484 40.484-40.616 40.484-40.616s1.372-.638 2.024.413c.653 1.04-.07 2-.07 2L36.707 93.852s-5.481 3.766-6.264 3.766c0 0 8.359.787 13.188-2.742 4.833-3.525 38.496-37.339 38.496-37.339s1.007-.812 2.017.408c.833 1.01-.19 1.943-.19 1.943L51.337 91.873s-5.092 4.047-6.531 4.047c0 0 8.622-.653 13.583-3.787 4.993-3.153 30.427-28.989 30.427-28.989s.888-.901 1.894-.019c1.163 1.018.212 2.14.212 2.14S68.444 89.522 62.511 91.159c0 0 5.674.582 20.03-8.903 8.777-5.792 13.332-12.194 13.332-12.194s1.959.258 4.31 3.79c0 0 1.697-4.181 4.963-6.662 3.262-2.484 2.742-1.961 4.046-3.395 1.307-1.44 1.312-5.021 1.312-5.021s3.67.215 5.893 3.346c2.221 3.137 2.077 5.544 2.077 5.544s2.861-2.344 6.129-2.565c1.957-.131 3.34-.091 3.34-.091s-.467 3.224-.597 5.967c-.26 5.618 1.043 7.181 1.043 7.181s4.964-7.181 4.05-17.363c-.916-10.188-3.266-17.112-7.444-25.075-4.18-7.966-3.917-8.095-3.917-11.494 0-3.787.391-7.704 8.096-7.837 7.706-.128 8.36 2.614 8.36 2.614l-.004-.006c.827-11.541-9.069-9.069-9.069-9.069l-4.505-.058z"/><path d="M322.776 102.539l-7.498-21.167h-38.441l-7.499 21.167h-12.591l32.95-90.405h13.661l33.213 90.405h-13.795zm-22.764-64.292c-1.608-4.418-2.811-8.435-3.887-12.321h-.268a198.559 198.559 0 01-3.752 12.188L280.052 71.6h32.011l-12.051-33.353zm83.309 65.365c-29.062 0-41.119-18.484-41.119-44.068 0-27.589 13.664-48.215 44.203-48.215 6.964 0 14.323.936 20.757 2.811l-2.009 11.252c-6.293-2.146-13.256-3.479-20.091-3.479-20.626 0-29.467 15.797-29.467 35.623 0 22.239 9.65 35.085 30.674 35.085 6.56 0 14.459-1.869 19.823-4.549l2.009 10.714c-6.833 2.814-15.673 4.826-24.78 4.826zm58.261.13c-7.365 0-14.196-.939-19.823-2.546l1.474-11.786a52.212 52.212 0 0019.018 3.615c10.447 0 19.556-4.287 19.556-15.399 0-20.364-40.853-12.325-40.853-41.12 0-14.865 11.255-25.575 31.613-25.575 5.227 0 11.248.531 16.335 1.734l-1.471 10.851c-4.821-1.477-10.313-2.413-15.532-2.413-12.328 0-18.22 5.491-18.22 14.066 0 19.552 41.392 12.458 41.392 40.847-.001 16.207-13.265 27.726-33.489 27.726zm-166.573 72.802c-11.839 0-17.697-7.328-17.697-19.401 0-11.779 5.509-20.982 19.049-20.982 3.103 0 6.504.469 9.433 1.345l-.7 3.464a29.208 29.208 0 00-9.558-1.644c-10.135 0-14.182 7.913-14.182 17.174 0 10.608 4.688 16.759 14.767 16.759 3.228 0 6.918-.931 9.496-2.223l.762 3.223c-3.103 1.349-7.092 2.285-11.37 2.285zm36.401-.407v-18.876c0-4.865-1.349-7.741-5.92-7.741-5.509 0-9.377 5.335-9.377 12.722v13.896h-3.693v-42.79h3.693v14.711c0 1.994-.119 4.338-.472 5.807l.118.051c1.698-4.51 5.454-7.383 10.552-7.383 6.74 0 8.789 4.162 8.789 9.324v20.28h-3.69zm33.347-15.773h-19.751c-.351 9.262 3.224 13.065 10.02 13.065 2.816 0 5.746-.579 8.209-1.692l.703 3.105c-2.757 1.113-6.096 1.757-9.729 1.757-8.497 0-13.13-4.685-13.13-14.948 0-8.675 4.688-15.119 12.604-15.119 7.91 0 11.193 5.453 11.193 11.72 0 .415 0 1.117-.119 2.112zm-11.317-11.018c-4.334 0-7.443 3.107-8.202 8.208h15.708c.122-4.922-2.756-8.208-7.506-8.208zm54.806 26.791v-18.876c0-4.693-1.119-7.741-5.627-7.741-4.807 0-9.261 4.809-9.261 12.841v13.776h-3.694v-18.936c0-4.161-.817-7.682-5.625-7.682-5.099 0-9.206 5.276-9.206 12.841v13.776h-3.69v-29.129h3.75c0 2.046-.174 4.915-.529 6.793l.125.063c1.639-4.459 5.507-7.332 10.428-7.332 6.921 0 8.149 5.097 8.149 7.206.998-2.751 4.162-7.206 10.256-7.206 5.453 0 8.618 2.813 8.618 9.381v20.224h-3.694zm14.477-35.935a2.62 2.62 0 01-2.638-2.638 2.62 2.62 0 012.638-2.632c1.466 0 2.635 1.112 2.635 2.632-.001 1.411-1.17 2.638-2.635 2.638zm-1.878 35.935v-29.129h3.693v29.129h-3.693zm16.941.463c-2.23 0-4.692-.233-6.508-.759l.529-3.514c1.877.693 4.395 1.103 6.622 1.103 4.339 0 7.505-2.041 7.505-5.325 0-7.563-14.774-2.756-14.774-13.25 0-4.803 3.812-8.322 11.021-8.322 1.874 0 4.103.238 5.86.643l-.466 3.171c-1.815-.536-3.874-.882-5.926-.882-4.512 0-6.738 1.935-6.738 4.987 0 7.558 14.831 2.929 14.831 13.129.001 4.977-4.454 9.019-11.956 9.019zm26.965-.056c-5.69 0-7.332-2.584-7.332-8.439v-18.172h-6.622v-2.925h6.622v-9.853l3.693-.995v10.848h8.971v2.925h-8.971v16.354c0 5.565.999 6.971 4.633 6.971 1.521 0 2.929-.174 4.041-.467l.528 3.165c-1.581.355-3.751.588-5.563.588zm24.374-26.378c-6.623-1.05-9.786 4.225-9.786 14.363v11.607h-3.695v-29.129h3.756c0 2.046-.233 5.032-.76 7.613l.116.063c1.109-4.339 4.157-8.914 10.55-8.091l-.181 3.574zm13.941 28.954c-3.396 8.908-6.676 12.188-13.123 12.188-.942 0-2.108-.175-2.933-.351l.41-3.401c.877.299 2.286.473 3.34.473 3.456 0 5.976-1.758 8.499-8.32l1.406-3.571-11.248-29.129h4.333l6.562 17.93c1 2.694 1.584 4.629 2.229 6.74h.057c.467-1.756 1.704-5.329 2.932-8.846l5.627-15.824h4.045l-12.136 32.111zm43.26-42.376c-1.525-.469-3.229-.644-4.751-.644-4.808 0-6.856 2.813-6.856 8.792v2.115h8.97v2.925h-8.97v26.204h-3.69v-26.204h-6.685v-2.925h6.685v-1.996c0-8.149 4.104-11.961 10.842-11.961 1.701 0 3.221.174 4.803.532l-.348 3.162zm9.669 39.856c-7.742 0-12.661-4.747-12.661-14.948 0-8.146 4.919-15.119 13.655-15.119 6.796 0 12.716 3.752 12.716 14.594 0 8.499-5.154 15.473-13.71 15.473zm.584-27.08c-4.807 0-9.377 3.693-9.377 11.847 0 7.731 3.396 12.183 9.439 12.183 4.802 0 9.255-3.689 9.255-12.242 0-7.333-3.162-11.788-9.317-11.788zm47.941 26.617V136.57h3.756v36.451h15.121v3.116H584.52zm24.444-35.935a2.623 2.623 0 01-2.637-2.638 2.623 2.623 0 012.637-2.632c1.467 0 2.64 1.112 2.64 2.632 0 1.411-1.173 2.638-2.64 2.638zm-1.876 35.935v-29.129h3.691v29.129h-3.691zm29.304-39.393c-1.522-.469-3.221-.644-4.744-.644-4.81 0-6.859 2.813-6.859 8.792v2.115h8.968v2.925h-8.968v26.204h-3.692v-26.204h-6.685v-2.925h6.685v-1.996c0-8.149 4.104-11.961 10.844-11.961 1.701 0 3.221.174 4.806.532l-.355 3.162zm20.747 23.62h-19.752c-.348 9.262 3.228 13.065 10.023 13.065 2.817 0 5.748-.579 8.207-1.692l.704 3.105c-2.763 1.113-6.094 1.757-9.732 1.757-8.497 0-13.13-4.685-13.13-14.948 0-8.675 4.686-15.119 12.601-15.119 7.917 0 11.197 5.453 11.197 11.72 0 .415 0 1.117-.118 2.112zm-11.309-11.018c-4.337 0-7.448 3.107-8.207 8.208h15.709c.115-4.922-2.758-8.208-7.502-8.208z" fill="#FFF"/><path fill-rule="evenodd" clip-rule="evenodd" fill="#FFF" d="M2.326 102.881h226.483L114.7 216.074 2.326 102.881zm104.725 88.349c1.579 1.58 4.42 2.367 8.522 2.367 2.338 0 4.271-.341 5.806-1.012 1.538-.677 2.732-1.662 3.588-2.966.853-1.312 1.281-2.735 1.281-4.277 0-1.326-.32-2.513-.959-3.573-.644-1.067-1.67-1.956-3.078-2.678-1.411-.717-3.742-1.426-7-2.126-1.317-.276-2.151-.57-2.5-.889-.363-.306-.546-.653-.546-1.035 0-.525.219-.976.658-1.346.439-.364 1.093-.552 1.958-.552 1.054 0 1.878.251 2.477.743.599.494.773.974.96 2.057l7.24-.102c-.306-2.499-1.269-4.322-2.888-5.465-1.616-1.15-3.966-1.722-7.046-1.722-2.514 0-4.49.313-5.934.948-1.442.628-2.52 1.498-3.241 2.596-.718 1.101-1.078 2.275-1.078 3.516 0 1.883.702 3.436 2.108 4.651 1.389 1.216 3.721 2.196 6.989 2.928 1.996.441 3.269.905 3.819 1.398.546.489.821 1.049.821 1.681 0 .662-.288 1.234-.865 1.737-.575.502-1.396.747-2.458.747-1.426 0-2.522-.492-3.291-1.461-.471-.6-.557-.767-.708-1.915l-7.321-.276c.213 2.439 1.107 4.443 2.686 6.026zm55.696-54.491c-3.965 0-4.688-3.138-4.688-6.478 0-4.589 1.649-6.939 4.393-6.939 2.445 0 3.995 1.43 4.23 3.908h7.4c-.629-6.121-4.694-9.721-11.968-9.721-6.637 0-11.855 4.794-11.855 12.487 0 7.732 4.756 12.559 12.626 12.559 6.27 0 10.668-3.696 11.359-9.843h-7.5c-.297 2.28-1.481 4.027-3.997 4.027zm-89.866-18.536l8.528 23.795h-7.764l-.924-3.139h-7.766l-.895 3.139h-7.634l8.528-23.795h7.927zm-1.519 15.701l-2.514-8.521-2.412 8.521h4.926zm59.376-21.789h-12.013l-2.351 1.566 2.744 4.439s.782-.918 1.83-.918c1.041 0 9.79.135 9.79.135v-5.222zm-30.736.129v5.221l9.531-.127 11.302 17.014-.665 1.529-.174 1.089.011.845.1.668.201.718.242.569.285.522.281.401.463.539.396.369.355.28.427.277.536.279.716.263.597.146.616.075.378.015.567-.035.322-.039 6.816 10.261.188.446-.172.445-.408.149h-1.082l-.884-.909-.48-.341-.596-.309-.542-.195-.923-.18h-.902l-.746.127-.752.261-.687.373-.636.485-.308.311-.31.377h-4.706l-.429-.504-.51-.451-.586-.388-.773-.349-.765-.194-.819-.072-.81.07-.771.196-.721.315-.573.369-.526.447-.48.56h-4.708l-1.046-1.036-.694-.419-.561-.236-.766-.196-.816-.07-.873.079-.76.209-.706.319-.664.438-.505.463-.376.449h-2.256l-.551-.398-.139-.354v-.616l.334-.539.764-1.072.671-.99 5.116-7.399.85.136.674-.009.762-.127.761-.221.762-.365.673-.447.72-.628.673-.896.401-.719.315-.984.134-.942-.044-.942-.135-.771-.224-.71-.232-.459-.163-.286 4.725-6.924-3.478-4.023-5.651 8.241-.585-.014-.973.116-.757.217-.641.274-.681.414-.828.715-.58.712-.403.698-.321.803-.221 1.089-.011 1.026.104.728.151.566.282.692-9.188 13.518-.433.891-.174.741v.811l.137.715.352.838.585.743.675.54.704.395.728.294.8.237.813.171h4.818l.423.561.577.558.602.426.685.333.792.244.681.089h.612l1.034-.18.708-.266.697-.404.793-.689.525-.671 4.312-.057.499.668.476.464.573.417.784.398.952.264.81.065 1.003-.106.751-.223.649-.313.791-.566.491-.505.425-.582 4.242-.019.501.682.453.447.544.407.661.361.801.274.891.133.912-.033 1.019-.252.831-.398.703-.516.527-.539.417-.587 4.087-.012.765-.222.876-.364.635-.371.561-.449.501-.588.387-.858.098-.642-.039-.668-.195-.77-.294-.709-.421-.758-8.537-13.094.284-.593.256-.79.113-.604.049-.728-.081-.922-.191-.8-.309-.752-.23-.417-.387-.567-.457-.519-.482-.456-.631-.403-.671-.362-.627-.221-.718-.136-.628-.089-.404.042h-.314l-11.24-17.25-.44-.7-.39-.474-.395-.381-.438-.325-.695-.341-.531-.129-10.948.133z"/><path fill="#FFF" d="M670.062 147.289c-4.76 0-8.398-3.719-8.398-8.398 0-4.639 3.759-8.438 8.398-8.438 4.759 0 8.438 3.68 8.438 8.438 0 4.559-3.879 8.398-8.438 8.398zm0-15.037c-3.6 0-6.519 2.92-6.519 6.559 0 3.6 2.919 6.68 6.519 6.68 3.64 0 6.519-2.92 6.519-6.56-.001-3.599-2.88-6.679-6.519-6.679zm1.559 11.198l-2.56-4.079h-.12v4.079h-1.6v-9.278h2.8c2.199 0 3.079.959 3.079 2.359 0 1.56-.96 2.52-2.439 2.68.2.24.56.76.92 1.279l1.92 2.96h-2zm-1.64-7.999h-1.04v2.84h.64c1.48 0 1.96-.8 1.96-1.561 0-.878-.399-1.279-1.56-1.279zm-100.856 14.715c-6.623-1.05-9.786 4.225-9.786 14.363v11.607h-3.695v-29.129h3.756c0 2.046.19 5.032-.336 7.613l-.308.063c1.109-4.339 4.157-8.914 10.55-8.091l-.181 3.574z"/></svg>