<?xml version="1.0" encoding="UTF-8"?>
<svg id="Ebene_1" xmlns="http://www.w3.org/2000/svg" version="1.1" viewBox="0 0 250.87 120.47">
  <!-- Generator: Adobe Illustrator 30.3.0, SVG Export Plug-In . SVG Version: 2.1.3 Build 182)  -->
  <defs>
    <style>
      .st0 {
        fill: #adbde3;
      }

      .st1 {
        fill: #023d6b;
      }

      .st2 {
        fill: #eb5f73;
      }

      .st3 {
        fill: #fab45a;
      }
    </style>
  </defs>
  <path class="st0" d="M96.77,93.06c-18.1,0-32.82-14.72-32.82-32.82,0-4.72.98-9.28,2.92-13.54.34-.75,1.23-1.09,1.99-.75.75.34,1.09,1.23.75,1.99-1.76,3.88-2.65,8.02-2.65,12.31,0,16.44,13.38,29.82,29.82,29.82,5.98,0,11.74-1.76,16.67-5.09.69-.46,1.62-.28,2.08.4.46.69.28,1.62-.4,2.08-5.43,3.67-11.77,5.61-18.35,5.61Z"/>
  <path class="st0" d="M115.82,36.87c-.32,0-.64-.1-.91-.31-4-3.07-8.74-5.08-13.71-5.82-.82-.12-1.38-.89-1.26-1.7.12-.82.89-1.38,1.7-1.26,5.47.81,10.69,3.03,15.09,6.41.66.5.78,1.45.28,2.1-.3.38-.74.59-1.19.59Z"/>
  <path class="st3" d="M129.39,39.65c-.48,0-.95-.23-1.24-.66-7.07-10.42-18.8-16.64-31.38-16.64-5.67,0-11.13,1.22-16.22,3.64-.75.35-1.64.04-2-.71s-.04-1.64.71-2c5.49-2.6,11.38-3.92,17.5-3.92,13.57,0,26.23,6.71,33.86,17.96.47.69.29,1.62-.4,2.08-.26.18-.55.26-.84.26Z"/>
  <path class="st3" d="M96.77,101.13c-17.95,0-34.06-12-39.19-29.18,0,0-.35-1.09-.67-2.42-.19-.81.3-1.61,1.11-1.81.8-.19,1.61.3,1.81,1.11.29,1.21.61,2.21.62,2.22,4.76,15.96,19.7,27.07,36.33,27.07,10.51,0,20.64-4.42,27.79-12.13.56-.61,1.51-.64,2.12-.08.61.56.64,1.51.08,2.12-7.72,8.32-18.65,13.09-29.99,13.09Z"/>
  <path class="st0" d="M26.98,32.4c-.83,0-1.5-.67-1.5-1.5v-4.04c0-.83.67-1.5,1.5-1.5h32.52c.83,0,1.5.67,1.5,1.5s-.67,1.5-1.5,1.5h-31.02v2.54c0,.83-.67,1.5-1.5,1.5Z"/>
  <path class="st1" d="M148.87,75.86c0-.43.39-.57.84-.57.7,0,.88.35.98.64.04.1.07.15.19.15h.65c.09,0,.17-.06.17-.18,0-.05,0-.1-.02-.13-.15-.61-.65-1.39-1.93-1.39-1.02,0-1.96.44-1.96,1.52,0,2.1,2.94,1.23,2.94,2.31,0,.47-.36.66-.95.66-.74,0-.97-.43-1.06-.69-.03-.1-.07-.17-.19-.17h-.64c-.1,0-.18.07-.19.17-.01.05,0,.11,0,.14.12.7.78,1.44,2.05,1.44,1.08,0,2.03-.4,2.03-1.57,0-2.07-2.93-1.21-2.93-2.34M155.5,75.34c.61,0,.94.37,1.08.91.01.07.07.15.18.15h.71c.09,0,.15-.07.15-.17,0-.04,0-.08-.02-.13-.22-.95-.97-1.72-2.1-1.72-1.23,0-2.2.91-2.2,2.36v.67c0,1.45.97,2.35,2.2,2.35,1.29,0,1.98-.95,2.1-1.67.01-.05.02-.12.02-.16,0-.09-.07-.17-.18-.17h-.71c-.08,0-.15.04-.17.15-.13.61-.5.91-1.07.91-.64,0-1.12-.46-1.12-1.28v-.92c0-.83.48-1.28,1.12-1.28M161.84,74.39c-.73,0-1.16.3-1.43.69v-2.41c0-.13-.11-.25-.25-.25h-.63c-.13,0-.24.11-.24.25v6.76c0,.13.1.24.24.24h.63c.14,0,.25-.1.25-.24v-2.8c0-.83.46-1.28,1.1-1.28s1.1.46,1.1,1.28v2.8c0,.13.1.24.24.24h.63c.13,0,.25-.1.25-.24v-2.68c0-1.41-.61-2.36-1.88-2.36M146.1,74.49h-.13c-.67,0-1.12.35-1.38.78v-.53c0-.13-.1-.25-.24-.25h-.58c-.14,0-.24.11-.24.25v4.69c0,.13.1.24.24.24h.62c.13,0,.25-.1.25-.24v-2.34c0-.97.44-1.49,1.31-1.49h.15c.13,0,.25-.1.25-.24v-.62c0-.13-.11-.25-.25-.25M163.55,45.55h-2.49c-.51,0-.93.42-.93.93v11.88c0,3.09-1.5,4.41-3.63,4.41s-3.57-1.32-3.57-4.41v-11.88c0-.51-.42-.93-.93-.93h-2.49c-.51,0-.93.42-.93.93v11.88c0,5.25,3.18,8.49,7.92,8.49s7.98-3.24,7.98-8.49v-11.88c0-.51-.42-.93-.93-.93M159.83,43.72c1.29,0,2.16-.87,2.16-2.16s-.87-2.16-2.16-2.16-2.16.87-2.16,2.16.87,2.16,2.16,2.16M91.79,56.86l7.41-19.17c-9.2-.99-18.29,3.76-22.61,12.21-.01.04-.02.08-.03.12l-.32.83c-2.24,5.8,1.18,10.08,4.5,11.36,3.31,1.28,8.82.44,11.06-5.35M153.53,43.72c1.29,0,2.16-.87,2.16-2.16s-.87-2.16-2.16-2.16-2.16.87-2.16,2.16.87,2.16,2.16,2.16M169.81,74.49h-.63c-.14,0-.24.11-.24.25v2.8c0,.83-.41,1.28-1.05,1.28s-1.01-.46-1.01-1.28v-2.8c0-.13-.11-.25-.25-.25h-.63c-.14,0-.24.11-.24.25v2.68c0,1.45.59,2.35,1.81,2.35.74,0,1.12-.29,1.38-.66v.32c0,.13.1.24.24.24h.63c.13,0,.25-.1.25-.24v-4.69c0-.13-.11-.25-.25-.25M105.21,61.83c-4.44,11.5-15.06,15.82-24.75,14.15,2.22,2.3,4.96,4.17,8.14,5.4,11.68,4.51,24.81-1.3,29.32-12.98,3.44-8.89.88-18.62-5.69-24.75l-7.02,18.18ZM139.55,74.39c-1.24,0-2.22.91-2.22,2.36v.67c0,1.45.98,2.35,2.22,2.35s2.24-.9,2.24-2.35v-.67c0-1.45-.98-2.36-2.24-2.36M140.67,77.54c0,.83-.47,1.28-1.12,1.28s-1.11-.46-1.11-1.28v-.92c0-.83.48-1.28,1.11-1.28s1.12.46,1.12,1.28v.92ZM136.14,72.42h-4.03c-.13,0-.24.11-.24.25v6.76c0,.13.1.24.24.24h.63c.13,0,.25-.1.25-.24v-2.65h2.49c.14,0,.25-.1.25-.24v-.56c0-.13-.11-.25-.25-.25h-2.49v-2.26h3.15c.13,0,.25-.1.25-.24v-.56c0-.13-.11-.25-.25-.25M143.95,46.48c0-.51-.42-.93-.93-.93h-2.49c-.51,0-.93.42-.93.93v13.56c0,1.89-1.47,2.73-2.55,2.73s-2.52-.84-2.52-2.73v-.27c0-.51-.42-.93-.93-.93h-2.4c-.51,0-.93.42-.93.93v.21c0,4.35,3.36,6.87,6.78,6.87s6.9-2.52,6.9-6.87v-13.5ZM174.74,74.39c-.72,0-1.15.3-1.42.7v-.35c0-.13-.11-.25-.25-.25h-.63c-.14,0-.24.11-.24.25v4.69c0,.13.1.24.24.24h.63c.14,0,.25-.1.25-.24v-2.8c0-.83.46-1.28,1.1-1.28s1.1.46,1.1,1.28v2.8c0,.13.1.24.24.24h.63c.13,0,.25-.1.25-.24v-2.68c0-1.41-.62-2.36-1.89-2.36M210.94,74.49h-1.04v-1.1c0-.13-.1-.25-.24-.25h-.61c-.13,0-.24.11-.24.25v.46c0,.53-.21.64-.71.64-.14,0-.24.11-.24.25v.5c0,.13.1.24.24.24h.7v2.54c0,1.07.36,1.65,1.6,1.65h.54c.14,0,.25-.1.25-.24v-.53c0-.13-.11-.24-.25-.24h-.35c-.62,0-.69-.22-.69-.81v-2.38h1.04c.14,0,.25-.1.25-.24v-.5c0-.13-.11-.25-.25-.25M182.68,65.62v-2.22c0-.51-.42-.93-.93-.93h-7.98v-15.99c0-.51-.42-.93-.93-.93h-2.49c-.51,0-.93.42-.93.93v19.14c0,.51.42.93.93.93h11.4c.51,0,.93-.42.93-.93M211.03,59.05h-3.09c-.6,0-.72.48-.78.93-.15,1.44-1.23,2.79-3.42,2.79s-3.96-1.62-3.96-4.71v-3.96c0-3.09,1.77-4.77,3.96-4.77s3.18,1.47,3.42,2.91c.09.6.42.81.75.81h3.06c.45,0,.69-.3.66-.75-.24-3.63-3.09-7.05-7.89-7.05s-8.31,3.54-8.31,8.79v4.02c0,5.25,3.51,8.79,8.31,8.79s7.68-3.54,7.95-7.08c.03-.33-.24-.72-.66-.72M215.63,74.49h-.13c-.67,0-1.12.35-1.38.78v-.53c0-.13-.1-.25-.24-.25h-.58c-.13,0-.24.11-.24.25v4.69c0,.13.1.24.24.24h.62c.14,0,.25-.1.25-.24v-2.34c0-.97.45-1.49,1.32-1.49h.14c.14,0,.25-.1.25-.24v-.62c0-.13-.11-.25-.25-.25M229.56,74.39c-.71,0-1.25.3-1.6.84-.33-.59-.89-.84-1.52-.84-.7,0-1.1.32-1.35.69v-.34c0-.13-.11-.25-.25-.25h-.63c-.13,0-.24.11-.24.25v4.69c0,.13.1.24.24.24h.63c.14,0,.25-.1.25-.24v-2.64c0-.84.17-1.45,1.05-1.45.81,0,.98.51.98,1.45v2.64c0,.13.1.24.24.24h.64c.12,0,.24-.1.24-.24v-2.64c0-.89.21-1.45,1.04-1.45s.98.56.98,1.45v2.64c0,.13.1.24.24.24h.63c.13,0,.25-.1.25-.24v-2.53c0-1.49-.3-2.5-1.82-2.5M230.5,45.55h-2.49c-.51,0-.93.42-.93.93v7.5h-7.11v-7.5c0-.51-.42-.93-.93-.93h-2.49c-.51,0-.93.42-.93.93v19.14c0,.51.42.93.93.93h2.49c.51,0,.93-.42.93-.93v-7.56h7.11v7.56c0,.51.42.93.93.93h2.49c.51,0,.93-.42.93-.93v-19.14c0-.51-.42-.93-.93-.93M221.59,74.49h-.63c-.13,0-.24.11-.24.25v2.8c0,.83-.41,1.28-1.05,1.28s-1.02-.46-1.02-1.28v-2.8c0-.13-.11-.25-.25-.25h-.63c-.14,0-.24.11-.24.25v2.68c0,1.45.59,2.35,1.81,2.35.75,0,1.12-.29,1.38-.66v.32c0,.13.1.24.24.24h.63c.14,0,.25-.1.25-.24v-4.69c0-.13-.11-.25-.25-.25M185.79,75.86c0-.43.39-.57.84-.57.7,0,.88.35.98.64.04.1.07.15.18.15h.65c.09,0,.17-.06.17-.18,0-.05,0-.1-.02-.13-.16-.61-.65-1.39-1.94-1.39-1.02,0-1.96.44-1.96,1.52,0,2.1,2.94,1.23,2.94,2.31,0,.47-.36.66-.95.66-.74,0-.97-.43-1.05-.69-.03-.1-.07-.17-.19-.17h-.64c-.1,0-.18.07-.19.17-.01.05,0,.11.01.14.12.7.77,1.44,2.05,1.44,1.08,0,2.03-.4,2.03-1.57,0-2.07-2.93-1.21-2.93-2.34M190.93,65.62v-19.14c0-.51-.42-.93-.93-.93h-2.49c-.51,0-.93.42-.93.93v19.14c0,.51.42.93.93.93h2.49c.51,0,.93-.42.93-.93M181.4,78.66h-1.34c-.35,0-.51-.1-.51-.36,0-.24.17-.37.41-.37h1c1.16,0,1.96-.62,1.96-1.76v-2.12c0-.13-.1-.24-.24-.24h-.52c-.15,0-.25.1-.25.24v.67c-.31-.23-.69-.33-1.05-.33h-.26c-1.17,0-1.97.68-1.97,1.78,0,.55.21.95.66,1.26-.49.11-.7.44-.7.85,0,.35.15.64.47.79-.46.23-.7.64-.7,1.19,0,.87.64,1.58,1.82,1.58h1.2c1.16,0,1.81-.7,1.81-1.58s-.65-1.59-1.81-1.59M180.65,75.26h.28c.62,0,.97.38.97.91-.01.54-.37.9-.97.9h-.28c-.61,0-.97-.36-.97-.9s.36-.91.97-.91M181.19,80.98h-.82c-.7,0-.95-.28-.95-.72s.25-.74.95-.74h.82c.71,0,.97.29.97.74s-.26.72-.97.72M193.97,74.49h-3.41c-.14,0-.25.11-.25.25v.49c0,.13.11.24.25.24h2.35l-2.41,3.08c-.12.14-.18.22-.18.46v.42c0,.13.11.24.25.24h3.41c.13,0,.24-.1.24-.24v-.48c0-.13-.1-.25-.24-.25h-2.39l2.47-3.06c.12-.15.15-.25.15-.4v-.5c0-.13-.1-.25-.24-.25M204.54,74.39c-.72,0-1.15.3-1.42.7v-.35c0-.13-.11-.25-.25-.25h-.63c-.13,0-.24.11-.24.25v4.69c0,.13.1.24.24.24h.63c.14,0,.25-.1.25-.24v-2.8c0-.83.45-1.28,1.1-1.28s1.1.46,1.1,1.28v2.8c0,.13.1.24.24.24h.63c.14,0,.25-.1.25-.24v-2.68c0-1.41-.62-2.36-1.89-2.36M197.98,74.39c-1.24,0-2.23.91-2.23,2.36v.67c0,1.45.99,2.35,2.24,2.35.76,0,1.67-.37,2.04-1.38.02-.05.05-.11.05-.17,0-.1-.07-.18-.17-.18h-.67c-.14,0-.21.1-.24.14-.28.55-.66.63-1.01.63-.64,0-1.13-.5-1.13-1.23v-.15h3.07c.13,0,.24-.11.24-.25v-.48c0-1.39-.97-2.34-2.19-2.34M199.1,76.67h-2.23v-.11c0-.76.48-1.21,1.12-1.21s1.12.44,1.12,1.2v.12Z"/>
  <path class="st0" d="M40.29,86.88c-.2,0-.41-.04-.6-.13-.76-.33-1.1-1.22-.77-1.98l25.85-58.55c.33-.76,1.22-1.1,1.98-.77.76.33,1.1,1.22.77,1.98l-25.85,58.55c-.25.56-.8.89-1.37.89Z"/>
  <path class="st2" d="M46.01,92.9h-11.22c-.76,0-1.52-.16-2.15-.57-1.19-.75-1.85-1.99-1.83-3.32.02-.91.2-1.43.62-2.4l21.26-48.09s0-.06-.04-.06h-28.49c-2.6,0-4.72-2.11-4.72-4.72v-9.69c0-2.6,2.11-4.72,4.72-4.72h45.14c2.49,0,4.67,1.98,4.67,4.25v13.3c0,.83-.67,1.5-1.5,1.5s-1.5-.67-1.5-1.5v-13.3c0-.43-.71-1.25-1.67-1.25H24.16c-.95,0-1.72.77-1.72,1.72v9.69c0,.95.77,1.72,1.72,1.72h30.81c1.11,0,1.85,1.13,1.41,2.15l-.04.08-22.16,50.12c-.35.81-.36.9-.37,1.24,0,.29.15.49.24.58.16.17.38.26.62.26h11.34c1.2,0,1.87-.44,2.3-1.51l3.64-8.27c.31-.7,1.08-1.16,1.82-.95.9.25,1.34,1.23.97,2.05l-3.67,8.33c-.88,2.18-2.63,3.35-5.06,3.35Z"/>
</svg>