<svg xmlns="http://www.w3.org/2000/svg" viewBox="0 0 214.83 61.501"><g data-name="Group 71"><g data-name="Group 64" fill="transparent"><path data-name="Path 165" d="M79.733 15.932v5.974c0 1.489-.029 2.98-.086 4.431q-.085 2.2-.19 4.416a1.693 1.693 0 0 0 1.693 1.774h.074a71 71 0 0 1 3.087-.068h6.3c1.009 0 2.029.023 3.032.068h.074a1.7 1.7 0 0 0 1.329-.656 1.72 1.72 0 0 0 .3-1.529 1.7 1.7 0 0 1-.032-.413c0-.13 0-.276.015-.442a1 1 0 0 1 .023-.165 1.694 1.694 0 0 0-1.629-2.164 1.6 1.6 0 0 0-.347.036 14 14 0 0 1-1.747.229q-1.1.085-2.334.135t-2.518.051h-.785v-.273q-.018-1.275-.017-3.242V20.77l2.256.035q1.163.016 2.323.084a37 37 0 0 1 2.007.165 2 2 0 0 0 .194.011 1.694 1.694 0 0 0 1.661-2.028 3.6 3.6 0 0 1-.071-.708 4 4 0 0 1 .071-.745 1.695 1.695 0 0 0-1.661-2.028c-.052 0-.1 0-.155.007q-.739.067-1.565.118-.845.052-1.842.1t-2.183.086q-.483.014-1.014.022v-.262q-.018-1.273-.017-2.616c0-.823.017-1.565.05-2.2l.024-.5q.662.013 1.214.036 1.193.053 2.2.119c1.007.066 1.324.093 1.932.139s1.305.094 2.055.14h.106a1.7 1.7 0 0 0 1.662-2.028 3.5 3.5 0 0 1 0-1.419 1.7 1.7 0 0 0-1.662-2.027h-.077q-1.553.07-3.073.121-1.5.051-3.033.051t-3.052-.051q-1.536-.051-3.089-.121h-.076a1.693 1.693 0 0 0-1.693 1.774q.1 2.216.19 4.432c.047 1.469.076 2.967.076 4.455"/><path data-name="Path 166" d="M104.977 32.527a2 2 0 0 0 .212-.013 9 9 0 0 1 2.007 0 2 2 0 0 0 .212.013 1.694 1.694 0 0 0 1.695-1.695c0-.876.057-2.029.168-3.424q.172-2.155.414-4.588.2-2.028.439-4.1 1.048 2.06 2.083 4.056a295 295 0 0 1 4.334 8.72 1.7 1.7 0 0 0 1.53.966h.313a1.7 1.7 0 0 0 1.55-1.011c1.369-3.1 2.829-6.108 4.339-8.933q1.084-2.031 2.188-4.073.186 1.811.342 3.579.381 4.338.763 8.952a1.693 1.693 0 0 0 1.689 1.555 2 2 0 0 0 .282-.023 3 3 0 0 1 .535-.046h1.632a3 3 0 0 1 .535.046 2.4 2.4 0 0 1 1.67.023 2 2 0 0 0 .2-.012 10.4 10.4 0 0 1 2.169 0 2 2 0 0 0 .2.012 1.7 1.7 0 0 0 1.631-1.234c.288-1.02.729-2.339 1.313-3.921A150 150 0 0 1 141 23.295l.993-.021q1.027-.015 2.091-.016 1.134 0 2.266.016l1.122.022c.182.452 1.59 3.891 1.59 3.891q.49 1.206.9 2.31c.264.713.476 1.33.629 1.832a1.69 1.69 0 0 0 1.62 1.2 2 2 0 0 0 .243-.017 5 5 0 0 1 .679-.052h1.841a5 5 0 0 1 .678.052 2 2 0 0 0 .243.017 1.7 1.7 0 0 0 1.39-.726c.013-.019.018-.041.031-.06a1.6 1.6 0 0 0 .251.313 1.7 1.7 0 0 0 1.175.473q.075.001.149-.006c.475-.042 1-.063 1.553-.063s1.077.021 1.554.063c.049 0 .1.006.148.006a1.694 1.694 0 0 0 1.693-1.776q-.1-2.145-.19-4.362c-.046-1.162-.073-2.36-.082-3.571q.886 1.05 1.917 2.278 1.436 1.713 2.94 3.546a131 131 0 0 0 2.8 3.309 1.7 1.7 0 0 0 1.274.576 2 2 0 0 0 .242-.017 5 5 0 0 1 .713-.052h2a6 6 0 0 1 .815.054 2 2 0 0 0 .227.015 1.69 1.69 0 0 0 1.3-.627 2 2 0 0 0 .1.129 1.7 1.7 0 0 0 1.2.5h.075a71 71 0 0 1 3.086-.068h6.3c1.01 0 2.03.023 3.033.068h.074a1.7 1.7 0 0 0 1.625-2.182 1.7 1.7 0 0 1-.033-.416c0-.132 0-.278.015-.442a.7.7 0 0 1 .024-.165 1.695 1.695 0 0 0-1.629-2.164 1.7 1.7 0 0 0-.348.036 14 14 0 0 1-1.746.229q-1.1.085-2.335.135t-2.518.051h-.785v-.273q-.017-1.275-.016-3.242V20.77l2.256.035q1.161.016 2.323.084c.768.045 1.443.1 2.007.165a2 2 0 0 0 .193.011 1.694 1.694 0 0 0 1.662-2.028 3.6 3.6 0 0 1-.071-.708 4 4 0 0 1 .071-.745 1.7 1.7 0 0 0-1.662-2.028q-.074-.002-.155.007-.738.067-1.565.118-.843.052-1.841.1t-2.183.086q-.483.014-1.015.022v-.261q-.017-1.274-.016-2.617c0-.828.016-1.57.049-2.2l.025-.5q.66.013 1.213.036 1.194.052 2.2.119t1.932.139q.93.071 2.055.14h.106a1.7 1.7 0 0 0 1.662-2.026 3.6 3.6 0 0 1 0-1.422 1.694 1.694 0 0 0-1.662-2.026h-.078q-1.554.07-3.074.121-1.5.051-3.033.051t-3.052-.051q-1.536-.051-3.089-.121h-.076a1.64 1.64 0 0 0-1.493.913 1.685 1.685 0 0 0-1.775-.89q-.379.064-.765.111a5 5 0 0 1-.62.039A3 3 0 0 1 174 5.41a17 17 0 0 1-.672-.112 2 2 0 0 0-.307-.027 1.7 1.7 0 0 0-1.275.578q-1.211 1.385-2.523 2.852a128 128 0 0 1-5.294 5.568l-.354.347c.012-1.049.038-2.082.078-3.087q.085-2.2.19-4.487a1.69 1.69 0 0 0-1.693-1.771 2 2 0 0 0-.26.019 24 24 0 0 1-.822.115 5 5 0 0 1-.62.039 5 5 0 0 1-.625-.039 28 28 0 0 1-.817-.114 1.6 1.6 0 0 0-.26-.02 1.694 1.694 0 0 0-1.693 1.772q.1 2.287.19 4.487c.057 1.442.086 2.933.086 4.431v5.974c0 1.5-.029 3-.086 4.45-.041 1.046-.088 2.067-.135 3.09a48 48 0 0 1-.825-1.769q-.709-1.592-1.592-3.616t-1.888-4.383q-1.007-2.356-2.011-4.75t-1.977-4.734l-1.806-4.357a1.69 1.69 0 0 0-1.566-1.047h-.66a1.7 1.7 0 0 0-1.554 1.018q-2.706 6.211-5.377 12.214a951 951 0 0 1-4.118 9.1q-.152-1.17-.292-2.339-.348-2.932-.694-5.935t-.675-6.1q-.332-3.114-.714-6.457a1.7 1.7 0 0 0-1.684-1.5h-.452a1.7 1.7 0 0 0-1.489.886q-.867 1.6-1.873 3.434t-2.038 3.768q-1.026 1.913-2.017 3.772t-1.851 3.444q-.576 1.059-1.06 1.958a665 665 0 0 1-3.609-6.766 335 335 0 0 1-4.821-9.538 1.7 1.7 0 0 0-1.524-.954h-.591a1.7 1.7 0 0 0-1.687 1.526c-.184 1.84-.4 3.8-.655 5.812s-.531 4.113-.83 6.205-.612 4.189-.934 6.265-.636 4.059-.937 5.932a1.694 1.694 0 0 0 1.674 1.963Zm63.576-16.054c.926-.949 1.907-1.925 2.917-2.9s2.039-1.953 3.051-2.9 1.911-1.75 2.692-2.419a1.7 1.7 0 0 0 .23-.275q.079 1.749.15 3.5c.057 1.453.086 2.95.086 4.449v5.974c0 1.5-.029 2.99-.086 4.431-.039 1.008-.085 2.022-.13 3.035q-2.794-3.126-5.512-6.236-2.358-2.7-4.681-5.32.583-.62 1.283-1.339m-24.244-1 1.277 2.924q-.663.008-1.327.008-.586 0-1.2-.015Z"/><path data-name="Path 167" d="M194.177 15.966v5.974c0 1.5-.028 2.994-.085 4.45q-.087 2.214-.19 4.36a1.694 1.694 0 0 0 1.692 1.777q.075.002.149-.006c.476-.042 1-.063 1.553-.063s1.078.021 1.554.063c.049 0 .1.006.148.006a1.694 1.694 0 0 0 1.693-1.776q-.1-2.145-.19-4.362c-.052-1.31-.08-2.665-.085-4.033q.37.434.756.912 1.323 1.635 2.6 3.285t2.315 3.087q1.055 1.452 1.574 2.178a1.7 1.7 0 0 0 1.378.709 2 2 0 0 0 .242-.017 5 5 0 0 1 .766-.052h2.049a6 6 0 0 1 .816.054 2 2 0 0 0 .227.015 1.7 1.7 0 0 0 1.2-2.9 24 24 0 0 1-1.192-1.323q-.783-.919-1.669-2.027-.9-1.124-1.868-2.353t-1.883-2.37q-.631-.789-1.177-1.485a10.8 10.8 0 0 0 2.621-1.4 8.7 8.7 0 0 0 2.266-2.455 7.7 7.7 0 0 0 .22-7.184 6.34 6.34 0 0 0-2.125-2.288 8.5 8.5 0 0 0-2.883-1.158 15.3 15.3 0 0 0-3.128-.314c-.714 0-1.431.031-2.13.093q-.901.08-1.83.08-.961 0-1.89-.05-.958-.051-1.952-.119h-.118a1.694 1.694 0 0 0-1.693 1.772q.105 2.287.191 4.487c.05 1.448.078 2.938.078 4.433m6.239 0c0-1.234.023-2.475.068-3.689l.084-2.288a33 33 0 0 1 1.73-.038 7.6 7.6 0 0 1 1.5.156 3.3 3.3 0 0 1 1.149.471 2.3 2.3 0 0 1 .755.825 2.9 2.9 0 0 1 .283 1.4 3.2 3.2 0 0 1-.383 1.687 3.4 3.4 0 0 1-1.079 1.1 4.8 4.8 0 0 1-1.583.629 9.4 9.4 0 0 1-1.9.207q-.33.002-.631-.008Z"/><path data-name="Path 168" d="M.076 35.67a1.7 1.7 0 0 0 1.695 1.695h210.981a1.7 1.7 0 1 0 0-3.39H45.315a34.7 34.7 0 0 0 6.189-5.776c.1-.108.2-.224.294-.334a31.4 31.4 0 0 0 6.813-7.049 15.5 15.5 0 0 0 2.665-6.247c.005.466.013.931.013 1.4v5.974c0 1.489-.029 2.987-.085 4.45s-.122 2.93-.191 4.36a1.694 1.694 0 0 0 1.693 1.777q.076.002.148-.006c.477-.042 1-.063 1.554-.063s1.078.021 1.554.063c.05 0 .1.006.148.006a1.693 1.693 0 0 0 1.693-1.777q-.1-2.145-.19-4.36c-.057-1.453-.086-2.95-.086-4.45v-.12q.522.01 1.119.01a19 19 0 0 0 3.152-.3 11.3 11.3 0 0 0 3.592-1.265 8.9 8.9 0 0 0 3-2.738 8.05 8.05 0 0 0 1.293-4.683 8 8 0 0 0-.55-3.107 6.65 6.65 0 0 0-1.474-2.207 6.5 6.5 0 0 0-2.042-1.358 11 11 0 0 0-2-.617 12.5 12.5 0 0 0-1.878-.24q-.81-.036-1.361-.036-.424 0-1.045.038-.528.033-1.106.049-.631.02-1.248.055-.532.031-.907.031-.781 0-1.583-.049-.831-.051-1.645-.119c-.047 0-.1-.005-.142-.005a1.694 1.694 0 0 0-1.693 1.772c.053 1.168.1 2.3.146 3.436a9 9 0 0 0-.532-1.594c-1.2-2.724-4.6-4.698-8.083-4.698a9.2 9.2 0 0 0-2.394.316 13.2 13.2 0 0 0-6.987 4.461q-.125-.398-.26-.79a12.97 12.97 0 0 0-6.9-7.356A9.1 9.1 0 0 0 32.341 0a7.01 7.01 0 0 0-5.935 3.306 12.2 12.2 0 0 0-1.559 3.619q-.198.639-.337 1.276c.017-.388.031-.761.049-1.153a1.7 1.7 0 0 0-1.694-1.772 2 2 0 0 0-.259.019q-.425.067-.821.115a5 5 0 0 1-.621.039 5 5 0 0 1-.626-.039q-.392-.049-.816-.114a2 2 0 0 0-.26-.02 1.694 1.694 0 0 0-1.694 1.772q.1 2.287.191 4.487c.051 1.3.079 2.637.085 3.984l-1.969.038q-1.737.034-3.594.034t-3.6-.034l-1.958-.038c.005-1.356.034-2.694.085-3.984q.085-2.2.19-4.487a1.694 1.694 0 0 0-1.693-1.772 2 2 0 0 0-.26.019c-.284.045-.555.082-.821.115a5 5 0 0 1-.621.039 5 5 0 0 1-.626-.039q-.392-.049-.816-.114a2 2 0 0 0-.26-.02A1.694 1.694 0 0 0 .408 7.048q.1 2.287.191 4.487c.056 1.445.085 2.936.085 4.431v5.974c0 1.5-.029 2.994-.085 4.449Q.51 28.604.408 30.75a1.694 1.694 0 0 0 1.693 1.777q.075.001.148-.006c.477-.042 1-.063 1.554-.063s1.077.021 1.554.063c.049 0 .1.006.148.006a1.694 1.694 0 0 0 1.693-1.777q-.1-2.145-.19-4.361a113 113 0 0 1-.086-4.449v-1.459q.995-.015 1.952-.024 1.745-.018 3.613-.018t3.611.018q.958.009 1.952.024v1.458c0 1.5-.029 3-.085 4.45q-.087 2.214-.19 4.36a1.694 1.694 0 0 0 1.693 1.777q.075.001.148-.006c.476-.042 1-.063 1.554-.063s1.073.024 1.553.064c.05 0 .1.006.148.006a1.694 1.694 0 0 0 1.693-1.777q-.1-2.145-.19-4.36a114 114 0 0 1-.085-4.45v-5.974q-.001-.261.005-.523a26.8 26.8 0 0 0 1.82 6.738 20.6 20.6 0 0 0 1.784 3.35 21 21 0 0 0 1.762 2.73 69 69 0 0 0 4.727 5.584v.13H1.771A1.7 1.7 0 0 0 .076 35.67M67.523 9.951h1.431a12.3 12.3 0 0 1 2.135.165 2.9 2.9 0 0 1 1.15.433 1.76 1.76 0 0 1 .585.757 4.4 4.4 0 0 1 .271 1.743 4.5 4.5 0 0 1-.4 2.1 3.2 3.2 0 0 1-1.017 1.169 4.2 4.2 0 0 1-1.508.634 9 9 0 0 1-1.871.207q-.39 0-.771-.031Z"/><path data-name="Path 169" d="M38.623 55.555a2 2 0 0 0-.05-.244l-.146-.521a2.03 2.03 0 0 0 .3-1.075v-2.656a2.1 2.1 0 0 0-.105-.659 1.7 1.7 0 0 0 .317-.988v-.974a1.7 1.7 0 0 1 .071-.69v-1.967q.001-.085-.006-.168a1.7 1.7 0 0 0 .395-1.089v-.973a1.7 1.7 0 0 0-1.695-1.695h-7.736a1.7 1.7 0 0 0-.593.107 1.7 1.7 0 0 0-.593-.107h-7.459a1.7 1.7 0 0 0-1.695 1.695v.974c0 .041.013.077.016.117a1.89 1.89 0 0 0-1.621-1.261q-.072-.006-.144-.006h-5.8v-.076a1.694 1.694 0 0 0-1.694-1.695H9.344a1.7 1.7 0 0 0-1.695 1.695v.082H2.315a1.87 1.87 0 0 0-1.883 1.734c0 .052-.007.1-.007.156v3.4a2 2 0 0 0 .024.285A1.7 1.7 0 0 0 0 50.105v1.045a1.7 1.7 0 0 0 1.695 1.695h.607a1.69 1.69 0 0 0-.28 1.45l.284 1.063a1.7 1.7 0 0 0 1.04 1.149l.278.1c-.552.045-1.2.086-1.954.121a1.7 1.7 0 0 0-1.553 2.153l.3 1.063a1.7 1.7 0 0 0 1.632 1.237h.04a18.6 18.6 0 0 0 8.506-1.948l5.807 2.16a1.69 1.69 0 0 0 1.98-.616l.619-.886a1.6 1.6 0 0 0 .195-.379 1.7 1.7 0 0 0 .955.935l1.009.39a1.7 1.7 0 0 0 .979.073 1.7 1.7 0 0 0 1.064.377 2 2 0 0 0 .205-.012l5.985-.726a2 2 0 0 0 .28-.058 3 3 0 0 0 .218.175 2.87 2.87 0 0 0 1.741.55h4.444a3.24 3.24 0 0 0 2.56-1.07c.454-.545.658-1.34.778-3.037a1.7 1.7 0 0 0-.791-1.554m-30.79-2.064q.29-.323.559-.648h2.648a7.3 7.3 0 0 1-1.171 1.4Zm3.19-5.083a1.7 1.7 0 0 0 .086-.594h3.526a1.7 1.7 0 0 0-.08.594Zm-4.615-.594c-.107.205-.215.4-.325.594H4.859v-.594Zm14.074 3.939a22.5 22.5 0 0 1-.24 3.4 11.6 11.6 0 0 1-1.009 2.976c-.024.052-.037.106-.057.159a1.68 1.68 0 0 0-.974-.961l-3.849-1.422a12.2 12.2 0 0 0 1.64-3.062h1.938a1.7 1.7 0 0 0 1.692-1.695v-1.045A1.69 1.69 0 0 0 19 48.79a12.8 12.8 0 0 0 .762-3.271 2.3 2.3 0 0 0-.015-.406 1.6 1.6 0 0 0 .127.291 2 2 0 0 0-.032.378v2.037a1.7 1.7 0 0 0 .637 1.324Z"/><path data-name="Path 170" d="M57.445 47.125a1.7 1.7 0 0 0-1.058-1.9l-.788-.3a1.7 1.7 0 0 0 .281-.514 1.7 1.7 0 0 0-.1-1.314l-.478-.938a1.7 1.7 0 0 0-1-.848 1.7 1.7 0 0 0-.508-.078 1.7 1.7 0 0 0-.8.2 32 32 0 0 1-3.271 1.533 45 45 0 0 0-6.187-1.376 2 2 0 0 0-.241-.017 1.7 1.7 0 0 0-1.646 1.3l-.248 1.026a1.7 1.7 0 0 0-.024.674 1.694 1.694 0 0 0-1.517 2.081l.131.554a1.7 1.7 0 0 0-1.009 1.551v1.045a1.7 1.7 0 0 0 1.695 1.695h.646a17 17 0 0 1-1.536.828 1.695 1.695 0 0 0-.665 2.5l.6.868a1.7 1.7 0 0 0 1.393.728 1.7 1.7 0 0 0 .482-.07v2.748a1.7 1.7 0 0 0 1.695 1.695h1.045a1.7 1.7 0 0 0 1.695-1.695v-3.78h.877v4.219a1.7 1.7 0 0 0 1.695 1.695h1.049a1.7 1.7 0 0 0 1.4-.739 12 12 0 0 0 2.3.253 4.44 4.44 0 0 0 2.632-.692 2.79 2.79 0 0 0 1.238-2.376v-4.852a1.92 1.92 0 0 0-.518-1.332h.275a1.7 1.7 0 0 0 1.695-1.695v-1.045a1.7 1.7 0 0 0-1.23-1.632m-4.653 8.2v.881c-.28-.037-.651-.1-1.139-.211a2 2 0 0 0-.305-.039v-.635Z"/><path data-name="Path 171" d="M76.47 56.292v-.877a2 2 0 0 0-.009-.173 1.69 1.69 0 0 0 .858-1.474v-1.045a1.7 1.7 0 0 0-.068-.48 3.3 3.3 0 0 0 .458-1.68v-6.657a1.98 1.98 0 0 0-2.031-2.014H69.41a1.97 1.97 0 0 0-1.791 1.062h-1.207a1.7 1.7 0 0 0-1.659-1.346h-1.045a1.7 1.7 0 0 0-1.658 1.346h-1.741a1.7 1.7 0 0 0-1.695 1.695v1.045a1.7 1.7 0 0 0 .708 1.379v3.7a2.3 2.3 0 0 0 .145.821 1.7 1.7 0 0 0-.428 1.126v1.045a1.7 1.7 0 0 0 .926 1.511c0 .044-.006.09-.006.136v.907a1.694 1.694 0 0 0-1.274 1.642v1.045a1.7 1.7 0 0 0 1.695 1.695h15.811a1.7 1.7 0 0 0 1.695-1.695v-1.042a1.7 1.7 0 0 0-1.416-1.672m-12.713-7.743v-1.16h3.64v.34a7 7 0 0 1-.077.82Z"/><path data-name="Path 172" d="M95.965 56.128h-5.954v-8.881h5.246a1.7 1.7 0 0 0 1.7-1.695v-1.044a1.7 1.7 0 0 0-1.7-1.695H80.295a1.7 1.7 0 0 0-1.695 1.695v1.044a1.7 1.7 0 0 0 1.695 1.695h5.211v8.881h-5.848a1.7 1.7 0 0 0-1.695 1.695v1.044a1.7 1.7 0 0 0 1.695 1.695h16.307a1.7 1.7 0 0 0 1.695-1.695v-1.044a1.7 1.7 0 0 0-1.695-1.695"/><path data-name="Path 173" d="M116.894 52.781a1.7 1.7 0 0 0 .541-1.241v-.974a1.7 1.7 0 0 0-1.311-1.651v-5.009a1.83 1.83 0 0 0-1.664-1.826 2 2 0 0 0-.191-.011h-8.958a1.81 1.81 0 0 0-1.668 1.069 1.7 1.7 0 0 0-1.679-1.458h-1.041a1.7 1.7 0 0 0-1.7 1.695v1.845a1.7 1.7 0 0 0-1.7 1.695v1.045a1.7 1.7 0 0 0 1.7 1.7v3.67q-.58.299-1.092.544a1.7 1.7 0 0 0-.708 2.416l.549.885a1.7 1.7 0 0 0 2.136.653q.513-.231 1-.465a1.69 1.69 0 0 0-.015 1.816l.584.938a1.7 1.7 0 0 0 2.04.689q1.05-.4 1.965-.851a1 1 0 0 0 .09.1l.744.8a1.7 1.7 0 0 0 2.122.29q.582-.355 1.106-.725a1.7 1.7 0 0 0 .732.43 8.7 8.7 0 0 0 2.378.384 4.4 4.4 0 0 0 1.526-.253 3.6 3.6 0 0 0 1.787-1.5c.37-.591.736-1.565.773-6.307a1.8 1.8 0 0 0-.046-.393"/><path data-name="Path 174" d="M156.062 53.697v-1.045a1.7 1.7 0 0 0-.213-.823 1.7 1.7 0 0 0 .213-.823v-1.045a1.7 1.7 0 0 0-1.558-1.69v-.579a1.7 1.7 0 0 0 1.062-1.573v-1.045a1.7 1.7 0 0 0-1.7-1.695h-1.285a1.7 1.7 0 0 0-.864-1.343l-.921-.514a1.7 1.7 0 0 0-.826-.214 1.7 1.7 0 0 0-.526.084 1.7 1.7 0 0 0-1.014.9 11 11 0 0 1-.591 1.083h-2.788a13 13 0 0 0-1.163-1.539 1.693 1.693 0 0 0-2.264-.242l-.85.619a1.7 1.7 0 0 0-.684 1.162h-1.467a1.7 1.7 0 0 0-1.7 1.695v1.045a1.69 1.69 0 0 0 .85 1.469v.714a1.7 1.7 0 0 0-1.346 1.659v1.045a1.7 1.7 0 0 0 .213.823 1.7 1.7 0 0 0-.213.823v.441a17.4 17.4 0 0 0-1.552-3.4 1.7 1.7 0 0 0-.406-.45q.182-.291.342-.568a1.7 1.7 0 0 0 .215-1.069 1.7 1.7 0 0 0 1.679-1.695v-1.045a1.7 1.7 0 0 0-1.695-1.695h-2.2a1.7 1.7 0 0 0-.518-.808l-.8-.691a1.7 1.7 0 0 0-1.11-.413 2 2 0 0 0-.207.012 1.7 1.7 0 0 0-1.181.711 9 9 0 0 1-1.058 1.189h-2.148a10.3 10.3 0 0 0-1.635-1.518 1.69 1.69 0 0 0-2.236.217l-.708.761a1.7 1.7 0 0 0-.339.54h-2.032a1.7 1.7 0 0 0-1.7 1.695v1.044a1.7 1.7 0 0 0 1.285 1.641l-.38.806a1.7 1.7 0 0 0 .767 2.235 11 11 0 0 1 1.159.688l-.124.151-.69.07a1.7 1.7 0 0 0-1.453 2.163l.3 1.027a1.7 1.7 0 0 0 .678.928 7.4 7.4 0 0 1-1.3 1.989 1.7 1.7 0 0 0 .027 2.341l.726.743a1.7 1.7 0 0 0 1.213.511h.017a1.7 1.7 0 0 0 1.22-.536 11 11 0 0 0 1.133-1.445 3 3 0 0 0 .628.972 2.87 2.87 0 0 0 1.793.861 2 2 0 0 0 .149.007h6.356a2.58 2.58 0 0 0 2.016-1l.041-.046a1.695 1.695 0 0 0 2.239.544l.921-.514a1.7 1.7 0 0 0 .705-2.209q-.525-1.1-1.068-2.029l.149-.059a1.69 1.69 0 0 0 1.021-1.208 1.69 1.69 0 0 0 1.462.851h.005v4.223a1.7 1.7 0 0 0 1.695 1.695h1.045a1.7 1.7 0 0 0 1.662-1.363h7.6a1.7 1.7 0 0 0 1.663 1.363h1.045a1.7 1.7 0 0 0 1.695-1.695v-4.23a1.7 1.7 0 0 0 1.524-1.684"/><path data-name="Path 175" d="M175.914 54.918a1.7 1.7 0 0 0-.985-1.106 1.7 1.7 0 0 0 .411-1.106v-1.045a1.7 1.7 0 0 0-1.7-1.695h-1.457v-2.719h1.457a1.7 1.7 0 0 0 1.7-1.695v-1.044a1.7 1.7 0 0 0-1.7-1.695h-1.529a1.7 1.7 0 0 0-1.623-1.205h-1.045a1.7 1.7 0 0 0-1.623 1.205h-4.117a1.7 1.7 0 0 0-1.643-1.275h-1.037a1.7 1.7 0 0 0-1.642 1.275h-1.618a1.7 1.7 0 0 0-1.695 1.695v1.044a1.7 1.7 0 0 0 1.695 1.695h1.56v2.719h-1.491a1.7 1.7 0 0 0-1.695 1.695v1.045a1.7 1.7 0 0 0 .572 1.27l-.088.037a1.7 1.7 0 0 0-.727 2.533s.638.912.649.926a1.7 1.7 0 0 0-.123.634v1.045a1.7 1.7 0 0 0 1.7 1.695h15.383a1.7 1.7 0 0 0 1.695-1.695v-1.045a1.7 1.7 0 0 0-.22-.836l.657-.87a1.7 1.7 0 0 0 .279-1.482"/><path data-name="Path 176" d="M213.308 44.388a21.1 21.1 0 0 1-7.333-2.717 1.7 1.7 0 0 0-.839-.222h-.761a1.7 1.7 0 0 0-.9.26 19.1 19.1 0 0 1-7.157 2.754 1.69 1.69 0 0 0-1.327 2.236 1.7 1.7 0 0 0-.6-.363 24.5 24.5 0 0 1-7.655-4.531 1.7 1.7 0 0 0-1.083-.391h-.9a1.7 1.7 0 0 0-1.164.463 22.2 22.2 0 0 1-7.355 4.641 1.694 1.694 0 0 0-.845 2.462l.655 1.08a1.7 1.7 0 0 0 .214.283 1.7 1.7 0 0 0-.831 1.46v1.044a1.7 1.7 0 0 0 1.695 1.695h.226a1.7 1.7 0 0 0 .205.377 15 15 0 0 1 1 1.634h-1.075a1.7 1.7 0 0 0-1.7 1.695v1.044a1.7 1.7 0 0 0 1.7 1.695h15.6a1.7 1.7 0 0 0 1.7-1.695v-1.044a1.7 1.7 0 0 0-1.7-1.695h-.916q.435-.8.962-1.8a2 2 0 0 0 .094-.213h.143a1.7 1.7 0 0 0 1.695-1.695v-1.042a1.7 1.7 0 0 0-.8-1.438 1.7 1.7 0 0 0 .4-.456l.655-1.1a1.7 1.7 0 0 0 .232-.771 1.7 1.7 0 0 0 .651.6v3.413a1.84 1.84 0 0 0 .921 1.615v5.945a1.7 1.7 0 0 0 1.7 1.695h1.045a1.7 1.7 0 0 0 1.663-1.363h6.324a1.7 1.7 0 0 0 1.662 1.363h1.045a1.7 1.7 0 0 0 1.7-1.695v-5.912a1.83 1.83 0 0 0 .992-1.648v-3.383a1.7 1.7 0 0 0 1.06-1.016l.372-.991a1.694 1.694 0 0 0-1.348-2.273Zm-25.879 11.625v-1.471h.842q-.384.708-.842 1.471m-4.434-1.471v.939q-.237-.488-.478-.937Z"/></g><g data-name="Group 70"><g data-name="Group 68"><g data-name="Group 65"><path data-name="Path 177" d="M42.477 13.042a43 43 0 0 0-1.18-4.3 11.26 11.26 0 0 0-5.974-6.361c-3.391-1.486-5.979-.418-7.5 1.866s-2.665 6.665-1.257 12.719 3.541 9.062 4.455 10.278a56 56 0 0 0 5.402 6.209.64.64 0 0 0-.344.607c.04.419.5.419.686.419a4.3 4.3 0 0 0 .762-.189s.381.3.76-.267a41.7 41.7 0 0 0 7.465-4c4.53-2.929 8.491-5.824 11.461-10.164s2.932-7.878 1.865-10.278-4.835-4.417-8.49-3.428c-3.506.945-5.978 2.968-8.111 6.889" fill="#ca0a24"/><path data-name="Path 178" d="M56.074 7.012a6.7 6.7 0 0 0-2.679-.561c-2.878 0-5.558 1.826-7.431 3.981a34.5 34.5 0 0 0-2.777 3.8 31 31 0 0 0-1.141 1.916.1.1 0 0 0-.015.03c-.02.043-.15.315-.3.574a4 4 0 0 1-.249.385 1 1 0 0 1-.1.115l-.012.01-.01-.047a34 34 0 0 0-2.537-8.561c-1.21-2.723-4.066-5.726-7.273-5.735a5 5 0 0 0-1.6.261c-3.379 1.144-4.185 6.063-4.191 9.345 0 .433.014.84.041 1.207a24.8 24.8 0 0 0 1.876 7.8 27.6 27.6 0 0 0 5.016 7.4 26.3 26.3 0 0 0 5.626 5.3.206.206 0 0 0 .187.185c.049 0 .094.006.134.008.239.143.482.288.733.417a.2.2 0 0 0 .1.025.21.21 0 0 0 .2-.218.22.22 0 0 0-.124-.2l-.043-.023c4.3-.261 8.145-4.47 10.736-7.364 2.964-3.311 5.866-6.933 7.564-11.1a11.6 11.6 0 0 0 .826-4.182c.002-1.979-.641-3.939-2.557-4.768m-16.984 27q-.168 0-.336-.009a22.7 22.7 0 0 1-4.731-4.211 35.6 35.6 0 0 1-4.666-5.847 22.8 22.8 0 0 1-3.118-11.429 22 22 0 0 1 .146-2.531 9.46 9.46 0 0 1 2.555-5.638 3.33 3.33 0 0 1 2.449-1 7.32 7.32 0 0 1 4.207 1.7c3.663 2.876 4.78 8.642 5.458 13.02a.22.22 0 0 0 .219.18.2.2 0 0 0 .172-.1c2.391-4.314 5.052-9.566 10.078-10.986a7 7 0 0 1 1.894-.274 4.57 4.57 0 0 1 4.282 2.506 5.35 5.35 0 0 1 .547 2.457 11.9 11.9 0 0 1-.842 3.973c-1.274 3.454-3.721 6.471-6.043 9.305-2.768 3.387-7.515 8.898-12.271 8.886ZM56.031 7.113" fill="#fff"/></g><g data-name="Group 67"><g data-name="Group 66" fill="#080a3a"><path data-name="Path 179" d="M19.655 11.469q-.087-2.207-.191-4.5.45.07.868.121a6.7 6.7 0 0 0 1.668 0q.416-.051.868-.121-.1 2.292-.191 4.5t-.087 4.5v5.972q0 2.292.087 4.515t.191 4.376q-.8-.069-1.7-.069t-1.7.069q.1-2.153.191-4.376t.087-4.515v-3.126q-1.876-.034-3.63-.052t-3.629-.018q-1.877 0-3.63.018t-3.63.052v3.126q0 2.292.087 4.515t.191 4.376q-.8-.069-1.7-.069t-1.7.069q.1-2.153.191-4.376t.087-4.515v-5.974q0-2.293-.087-4.5t-.191-4.5q.451.07.868.121a6.7 6.7 0 0 0 1.668 0q.417-.052.868-.121-.1 2.292-.191 4.5t-.087 4.5v1.214l3.63.07q1.753.034 3.63.034t3.629-.034l3.63-.07v-1.214q-.008-2.293-.095-4.498"/><path data-name="Path 180" d="M62.984 15.967q0-2.293-.086-4.5t-.191-4.5q.833.069 1.684.121t1.685.052q.416 0 1.007-.034c.591-.034.793-.041 1.2-.052s.793-.029 1.164-.053.683-.034.938-.034q.521 0 1.285.034a10.6 10.6 0 0 1 1.615.209 9 9 0 0 1 1.684.521 4.8 4.8 0 0 1 1.511 1.007 4.9 4.9 0 0 1 1.094 1.65 6.3 6.3 0 0 1 .417 2.449 6.4 6.4 0 0 1-.99 3.716 7.2 7.2 0 0 1-2.431 2.223 9.6 9.6 0 0 1-3.057 1.077 17 17 0 0 1-2.865.277q-.8 0-1.459-.017t-1.354-.087v1.915q0 2.292.086 4.515t.192 4.376q-.8-.069-1.7-.069t-1.7.069q.1-2.153.191-4.376t.086-4.515Zm2.849 2.6a10.7 10.7 0 0 0 4.689.035 5.9 5.9 0 0 0 2.1-.886 4.9 4.9 0 0 0 1.563-1.771 6.1 6.1 0 0 0 .608-2.9 6 6 0 0 0-.417-2.431 3.4 3.4 0 0 0-1.164-1.459 4.5 4.5 0 0 0-1.823-.712 14 14 0 0 0-2.431-.191h-3.125Z"/><path data-name="Path 181" d="M81.341 11.416q-.087-2.222-.191-4.445 1.563.069 3.109.121t3.108.052 3.091-.052 3.092-.121a5.3 5.3 0 0 0 0 2.084q-1.111-.071-2.032-.139t-1.945-.135q-1.024-.069-2.241-.122t-2.917-.052q-.036 1.111-.087 2.119t-.052 2.292q0 1.354.017 2.64t.018 1.945q1.527 0 2.743-.035t2.223-.087q1.008-.051 1.859-.1t1.615-.121a5.4 5.4 0 0 0-.1 1.076 5.3 5.3 0 0 0 .1 1.042q-.9-.1-2.1-.173t-2.4-.087l-2.258-.035q-1.058-.017-1.684-.017 0 .312-.018.677t-.017.92v3.439q0 1.98.017 3.265t.052 1.945h2.432q1.319 0 2.587-.052t2.4-.139a16 16 0 0 0 1.963-.26 2.4 2.4 0 0 0-.087.538q-.018.298-.018.538a3.2 3.2 0 0 0 .1.9q-1.564-.069-3.109-.069h-6.3q-1.563 0-3.161.069.1-2.222.191-4.428t.087-4.5v-5.977q-.005-2.292-.087-4.516"/><path data-name="Path 182" d="M113.782 16.105q2.448 4.656 5.123 9.552.347-.658 1.007-1.893t1.528-2.831q.868-1.6 1.859-3.456t2.014-3.768q1.024-1.909 2.032-3.751t1.876-3.439h.451q.383 3.335.712 6.443t.678 6.113q.346 3 .694 5.94t.764 5.817a5 5 0 0 0-.816-.069h-1.632a5 5 0 0 0-.816.069q-.382-4.619-.765-8.961t-.938-8.857h-.069q-2.4 4.377-4.706 8.7t-4.394 9.048h-.313q-2.083-4.377-4.359-8.77t-4.567-8.979h-.07q-.243 2.154-.538 4.672t-.538 4.967q-.245 2.448-.417 4.619t-.174 3.56a10.7 10.7 0 0 0-2.431 0q.45-2.812.938-5.939t.937-6.287q.451-3.159.834-6.234t.66-5.853h.591q2.395 4.933 4.845 9.587"/><path data-name="Path 183" d="M155.895 30.832a7 7 0 0 0-.92-.069h-1.841a6.5 6.5 0 0 0-.92.069q-.243-.8-.661-1.927t-.92-2.362q-.5-1.233-1.024-2.5t-.973-2.414q-1.111-.034-2.257-.052t-2.293-.018q-1.077 0-2.119.018t-2.118.052q-1.113 2.709-2.015 5.158t-1.354 4.046a12 12 0 0 0-2.571 0q2.814-6.077 5.488-12.087T144.78 6.52h.661l1.806 4.359q.972 2.344 1.979 4.741 1.008 2.4 2.015 4.759t1.893 4.393q.885 2.032 1.6 3.63t1.161 2.43m-15.386-10.8q.9 0 1.875.035t1.875.035q.974 0 1.946-.018t1.945-.052l-3.855-8.822Z"/><path data-name="Path 184" d="M158.743 30.832q.1-2.153.191-4.376t.087-4.515v-5.974q0-2.293-.087-4.5t-.191-4.5q.451.07.869.121a6.7 6.7 0 0 0 1.667 0q.417-.052.868-.121-.1 2.292-.191 4.5t-.087 4.5v1.914q0 .278.209.278.138 0 .486-.313 1.215-1.042 2.553-2.362t2.691-2.744q1.356-1.424 2.675-2.9t2.54-2.869c.254.046.5.087.729.121a5 5 0 0 0 .7.052 7 7 0 0 0 .833-.052q.417-.052.834-.121-1.216 1.041-2.744 2.466t-3.074 2.917q-1.547 1.494-2.952 2.935t-2.345 2.518q2.814 3.162 5.679 6.443t5.818 6.582a8 8 0 0 0-1.042-.069h-2a7 7 0 0 0-.955.069q-1.251-1.424-2.762-3.265t-2.952-3.56-2.6-3.091-1.719-1.928q-.279-.278-.417-.277-.174 0-.174.208v3.022q0 2.292.087 4.515t.191 4.376q-.8-.069-1.7-.069t-1.715.069"/><path data-name="Path 185" d="M179.287 11.416q-.085-2.222-.19-4.445 1.562.069 3.108.121t3.109.052 3.091-.052 3.091-.121a5.3 5.3 0 0 0 0 2.084q-1.111-.071-2.032-.139t-1.941-.135q-1.024-.069-2.24-.122t-2.918-.052q-.035 1.111-.086 2.119t-.052 2.292q0 1.354.017 2.64t.017 1.945q1.528 0 2.744-.035t2.218-.087q1.007-.051 1.858-.1t1.616-.121a5.4 5.4 0 0 0-.1 1.076 5.3 5.3 0 0 0 .1 1.042q-.9-.1-2.1-.173t-2.4-.087l-2.258-.035q-1.058-.017-1.685-.017 0 .312-.017.677t-.017.92v3.439q0 1.98.017 3.265t.052 1.945h2.434q1.32 0 2.588-.052t2.4-.139a15 15 0 0 0 1.962-.26 2.4 2.4 0 0 0-.087.538q-.017.298-.017.538a3.2 3.2 0 0 0 .1.9q-1.563-.069-3.109-.069h-6.3q-1.563 0-3.16.069.1-2.222.19-4.428t.087-4.5v-5.977q-.003-2.292-.09-4.516"/><path data-name="Path 186" d="M195.873 15.967q0-2.293-.087-4.5t-.191-4.5q1.007.069 1.979.121t1.98.052 1.98-.086 1.98-.087a13.4 13.4 0 0 1 2.779.278 6.8 6.8 0 0 1 2.309.92 4.65 4.65 0 0 1 1.563 1.684 6.03 6.03 0 0 1-.173 5.471 7 7 0 0 1-1.824 1.98 9 9 0 0 1-2.31 1.215 11.5 11.5 0 0 1-2.24.573q.417.522 1.146 1.459t1.633 2.067q.9 1.129 1.876 2.362t1.875 2.362q.9 1.128 1.7 2.066t1.285 1.424a8 8 0 0 0-1.042-.069h-2.049a7 7 0 0 0-1.007.069q-.522-.729-1.581-2.188t-2.344-3.126-2.623-3.317-2.448-2.8h-1.316v2.544q0 2.292.087 4.515t.19 4.376q-.8-.069-1.7-.069t-1.7.069q.105-2.153.191-4.376t.087-4.515Zm2.848 1.979a7 7 0 0 0 1.059.139q.573.036 1.268.035a11 11 0 0 0 2.24-.243 6.5 6.5 0 0 0 2.135-.851 5.05 5.05 0 0 0 1.615-1.633 4.8 4.8 0 0 0 .643-2.587 4.5 4.5 0 0 0-.5-2.241 4 4 0 0 0-1.3-1.406 5 5 0 0 0-1.737-.712 9.2 9.2 0 0 0-1.841-.191q-1.217 0-2.014.052t-1.355.121l-.139 3.786q-.069 1.875-.069 3.752Z"/></g></g></g><path data-name="Line 1" fill="none" stroke="#271d20" stroke-width=".603" d="M1.771 35.67h210.981"/><g data-name="Group 69" fill="#271d20"><path data-name="Path 187" d="M6.228 51.147H1.695v-1.044h5.328a18 18 0 0 0 1.5-2.8l.885.567a18 18 0 0 1-1.151 2.231h9.668v1.044h-3.18a10.54 10.54 0 0 1-3.347 5.471l6.215 2.3-.62.886-6.57-2.44a15.9 15.9 0 0 1-8.375 2.125l-.3-1.063a23.8 23.8 0 0 0 5.206-.619 12 12 0 0 0 2.16-.939l-5.17-1.947-.283-1.063a36 36 0 0 0 2.567-2.709m3.116-6.073v-1.77h1.045v1.77h7.49q.212.018.194.354a11.2 11.2 0 0 1-.867 3.294q-.479-.213-.956-.39.3-.919.584-2.054.036-.159-.142-.159H3.271a.093.093 0 0 0-.106.106v2.444H2.123v-3.4q.018-.2.195-.195Zm-4.107 9.26 4.957 1.842a9.4 9.4 0 0 0 3.453-5.029H7.574a21.6 21.6 0 0 1-2.355 2.6.45.45 0 0 0-.195.354.32.32 0 0 0 .213.233"/><path data-name="Path 188" d="M31.438 55.857a49 49 0 0 0 5.223-1.1l.283 1.01a33.6 33.6 0 0 1-5.506 1.133v.885a1.1 1.1 0 0 0 .071.5.72.72 0 0 0 .584.196h3.647a1.3 1.3 0 0 0 .461-.071.38.38 0 0 0 .23-.213 4.7 4.7 0 0 0 .248-1.416l1.044.212a5 5 0 0 1-.389 2.072 1.6 1.6 0 0 1-1.257.46h-4.445a1.18 1.18 0 0 1-.725-.212 1.46 1.46 0 0 1-.514-1.363v-3.934H25.63v1.328h3.648v1.044H25.63v1.877l3.435-.425.124 1.027-5.984.726-.195-1.027 1.576-.177v-4.373h-1.452a15 15 0 0 1-1.364 5.241l-1.009-.39a13.3 13.3 0 0 0 1.151-3.417 24 24 0 0 0 .266-3.683v-3.045a.25.25 0 0 1 .283-.284h6.445v-1.1h1.044v1.1h7.295v.974h-4.816v1.364h4.3q.3 0 .3.283v2.656q0 .3-.319.3h-5.272ZM21.323 43.551h7.454v.974h-7.454Zm3.045 2.745h-1.624a.14.14 0 0 0-.159.159v1.364H21.54v-2.038a.28.28 0 0 1 .319-.318h6.055q.337 0 .337.318v2.037h-1.045v-1.363a.14.14 0 0 0-.159-.159h-1.629v1.485h-1.045Zm2.342 6.885v-1.573h-3.487v.478l-.035 1.1Zm0-2.407v-1.362h-3.364a.11.11 0 0 0-.124.124v1.24Zm4.675 0v-1.362h-3.63v1.364Zm0 2.407v-1.573h-3.63v1.573Zm-1.417-9.63h7.738v.974h-7.738Zm3.541 2.745h-1.77a.14.14 0 0 0-.16.159v1.293h-1.044v-1.967a.28.28 0 0 1 .318-.318h6.127q.336 0 .336.318v1.966h-1.045v-1.292a.14.14 0 0 0-.159-.159h-1.558v1.485h-1.045Zm-1.08 5.312v1.573h3.382a.156.156 0 0 0 .177-.177v-1.237q0-.159-.177-.159Z"/><path data-name="Path 189" d="M48.609 53.626h-4.2a.062.062 0 0 0-.07.071v5.4h-1.042v-5.616q-1.044.654-2.178 1.239l-.6-.868a18.3 18.3 0 0 0 5.56-4.054h-5.4v-1.041H47q.638-.851 1.451-2.125l.868.567q-.567.867-1.062 1.558h8.729v1.045H47.44a.05.05 0 0 0-.017.035 19.6 19.6 0 0 1-2.833 2.744h4.019v-1.912h1.044v1.912h5.613q.266.017.266.247v4.853a1.1 1.1 0 0 1-.5.974q-.991.708-3.753.159v-1.169q2.372.532 2.921.107a.57.57 0 0 0 .283-.478v-3.577a.084.084 0 0 0-.088-.071h-4.742v5.914h-1.044Zm.974-7.773a24 24 0 0 1-7.826 1.452l-.248-1.044a27.2 27.2 0 0 0 5.984-.815 1.8 1.8 0 0 1 .39-.088 41 41 0 0 0-4.834-1.063l.248-1.027a44.5 44.5 0 0 1 6.5 1.487 33 33 0 0 0 4-1.823l.478.938q-1.594.762-2.992 1.346 2.142.69 4.5 1.593l-.3 1.027q-3.228-1.221-5.9-1.983"/><path data-name="Path 190" d="M61.513 51.289a.456.456 0 0 1-.5-.513v-5.082h-.708v-1.045h3.4v-1.345h1.048v1.345h3.152v1.045h-5.843v4.355q0 .195.177.195h5.542v1.045Zm6.232 6.675v-1.505h-6.09v-1.045h6.09v-1.646h-7.011v-1.045h14.889v1.045h-6.835v1.646h5.985v1.045h-5.985v1.505h7.4v1.045H60.38v-1.045Zm7.225-8.516h-4.958a11.4 11.4 0 0 1-.655 2.408l-1.1-.3a12.2 12.2 0 0 0 .832-3.772v-3.878a.282.282 0 0 1 .319-.319h6.268q.336 0 .336.319v6.657a1.34 1.34 0 0 1-.354.974 3.2 3.2 0 0 1-2.089.124v-1.2a6 6 0 0 0 .991.319.3.3 0 0 0 .248-.054.61.61 0 0 0 .16-.478Zm0-1.045v-1.364h-4.834v1.293a.1.1 0 0 0-.018.071Zm0-2.408v-1.24a.13.13 0 0 0-.142-.123h-4.551q-.141.017-.141.141v1.222Z"/><path data-name="Path 191" d="M87.201 57.823V45.552h-6.906v-1.044h14.962v1.044h-6.941v12.271h7.649v1.044H79.658v-1.044Z"/><path data-name="Path 192" d="M100.923 54.352V47.96h-1.7v-1.045h1.7v-3.541h1.044v3.541h1.877v1.045h-1.877v5.808a15 15 0 0 0 1.488-.939l.584.868a26 26 0 0 1-4.621 2.585l-.549-.885q.917-.442 2.054-1.045m10.659-.443h-1.877q-.249.479-.425.85-1.541 2.709-6.162 4.462l-.584-.938q.46-.2.85-.319 3.948-1.611 5.17-4.055h-1.791a11.4 11.4 0 0 1-3.648 2.763l-.69-.85a4 4 0 0 1 .513-.284 7.87 7.87 0 0 0 3.984-4h-3.1v-.974h11.916v.974h-7.715a14 14 0 0 1-.514 1.328h7.366q.141.018.212.035a.21.21 0 0 1 .124.16.5.5 0 0 1 .036.106q-.036 4.656-.514 5.418a1.9 1.9 0 0 1-.956.814 4.84 4.84 0 0 1-2.833-.177V58a4.47 4.47 0 0 0 2.231.371 1.6 1.6 0 0 0 .655-.548 2.35 2.35 0 0 0 .336-1.382 11.7 11.7 0 0 0 0-2.461.15.15 0 0 0-.123-.071h-1.4a1.6 1.6 0 0 0-.089.372q-.8 2.974-4.8 5.418l-.744-.8q.373-.25.691-.425a8.43 8.43 0 0 0 3.878-4.565Zm2.691-4.639h-8.959c-.1 0-.142-.053-.142-.159v-5.2c.012-.1.059-.142.142-.142h8.959q.159.018.159.142v5.2a.14.14 0 0 1-.162.159Zm-8.056-3.24h7.171v-1.257q-.018-.053-.089-.035h-7.047q-.035.018-.035.035Zm7.171.974h-7.171v1.24q.017.053.035.053h7.047q.089-.018.089-.089Z"/><path data-name="Path 193" d="m120.57 55.468.973.407a11.5 11.5 0 0 1-2.195 3.629l-.726-.743a9.5 9.5 0 0 0 1.948-3.293m8.534-10.606-.23-.23a12 12 0 0 0 1.523-1.683l.8.691a11 11 0 0 1-1.044 1.222h4.87v1.044h-16.171v-1.044h4.763a9 9 0 0 0-1.151-1.08l.708-.762a9.2 9.2 0 0 1 1.505 1.435l-.425.407Zm-3.4 8.64-6.073.708-.3-1.027 1.381-.141 1.682-2.036a14 14 0 0 0-2.815-1.93l.443-.939a3.7 3.7 0 0 1 .9.514 27 27 0 0 0 1.558-2.337l.832.637a20 20 0 0 1-1.594 2.266q.567.39 1.275.974.991-1.363 1.913-2.815l.867.6a43 43 0 0 1-3.559 4.9l3.081-.319a12 12 0 0 0-.673-1.222l.939-.478a15.7 15.7 0 0 1 1.469 3.081l-.974.425q-.175-.472-.352-.861m-2.461 1.328h1.045v2.886a.58.58 0 0 0 .177.425.67.67 0 0 0 .407.177h5.312a.52.52 0 0 0 .319-.124 6.5 6.5 0 0 0 .265-1.682l1.027.213a7.2 7.2 0 0 1-.407 2.213.92.92 0 0 1-.744.425h-6.356a1.2 1.2 0 0 1-.744-.372 1 1 0 0 1-.3-.691Zm3.453.567.938-.425a14.3 14.3 0 0 1 1.009 2.109l-.973.354a15 15 0 0 0-.974-2.038m6.87-2.09-5.79.532-.3-1.027.974-.071q.708-.851 1.416-1.718a13.6 13.6 0 0 0-2.8-2.036l.478-.921a3.4 3.4 0 0 1 .867.514 23 23 0 0 0 1.558-2.39l.85.6a23 23 0 0 1-1.646 2.372q.565.444 1.31 1.045 1.026-1.416 2-2.957l.867.567a40 40 0 0 1-3.435 4.816l3.258-.266a12 12 0 0 0-.69-1.328l.956-.46a16.5 16.5 0 0 1 1.576 3.594l-.974.39q-.246-.706-.475-1.256m-1.576 2.214.885-.585a19.5 19.5 0 0 1 2.16 3.63l-.92.514a21 21 0 0 0-2.125-3.559"/><path data-name="Path 194" d="m141.778 52.652-.708-1.646h-2.94v-1.045h7.649v-1.434h-6.3v-1.046h6.3v-1.362h-7.156v-1.045h4.25a12 12 0 0 0-1.1-1.487l.85-.62a13.5 13.5 0 0 1 1.487 2.107h4.657a16 16 0 0 0 1.2-2.071l.921.513a13 13 0 0 1-.85 1.558h3.825v1.045h-7.04v1.362h5.985v1.045h-5.985v1.435h7.543v1.045h-2.6l-.832 1.646h3.435v1.045H138.13v-1.045Zm-.9 5.6v1.359h-1.045V54.99a.324.324 0 0 1 .354-.355h12.288q.372.018.372.355v4.621h-1.045v-1.364Zm0-1.027h10.924v-1.4c0-.1-.053-.142-.159-.142h-10.627q-.159.018-.141.142Zm2.054-4.568h2.85v-1.651h-3.579Zm3.9 0h2.939l.815-1.646h-3.763Z"/><path data-name="Path 195" d="M168.333 52.706h-5.51a14.4 14.4 0 0 1-4.923 3.753l-.619-.885a12.65 12.65 0 0 0 4.161-2.868h-3.612v-1.045h3.193v-6.109h-3.26v-1.044h3.26v-1.275h1.045v1.275h7.383v-1.2h1.045v1.2h3.151v1.044h-3.151v6.109h3.151v1.045h-3.824a14.1 14.1 0 0 0 4.46 2.675l-.655.868a16.2 16.2 0 0 1-5.295-3.543m-3.133 5.4v-2.072h-3.825V54.99h3.825v-1.7h1.044v1.7h3.789v1.044h-3.789v2.072h7.259v1.044h-15.386v-1.044Zm-3.134-11.125h7.383v-1.429h-7.383Zm0 2.267h7.383v-1.217h-7.383Zm0 2.408h7.383v-1.359h-7.383Z"/><path data-name="Path 196" d="M185.203 44.401a20.34 20.34 0 0 1-7.72 4.781l-.654-1.08a23.8 23.8 0 0 0 7.914-4.993h.9a26 26 0 0 0 8.2 4.833l-.655 1.1a20 20 0 0 1-4.179-1.983 26.4 26.4 0 0 1-3.806-2.658m2.833 13.846a38 38 0 0 0 2.674-4.8l.9.514q-1.611 3.045-2.373 4.284h3.825v1.045h-15.6v-1.043h7.224v-5.4h-7.578v-1.045h7.578v-2.567h-4.745V48.19h10.641v1.045h-4.852v2.567h7.614v1.045h-7.614v5.4Zm-9.118-4.32.9-.531a21.4 21.4 0 0 1 2.213 4.055l-.938.478a23.5 23.5 0 0 0-2.175-4.002"/><path data-name="Path 197" d="M208.094 45.781v.9h-6.671v-.761q-.266.106-.479.177a18 18 0 0 1-3.983 1.027l-.372-.991a20.7 20.7 0 0 0 7.791-2.993h.761a22.6 22.6 0 0 0 7.932 2.922l-.372.991a16.8 16.8 0 0 1-4.072-1.1 4 4 0 0 0-.535-.172m3.276 6.428h-13.347q-.142 0-.142-.16v-4.213q.018-.141.142-.141h13.351q.159.018.159.141v4.214a.14.14 0 0 1-.163.16Zm-11.527 6.038v1.364h-1.045v-6.18a.323.323 0 0 1 .354-.354h11.013q.372.018.372.354v6.18h-1.044v-1.364Zm3.028-7.471-.532.389h1.984v-2.426h-5.365q-.035.018-.035.036v2.337q.018.053.035.053h2.9a12 12 0 0 0-1.311-1.664l.815-.673a10.4 10.4 0 0 1 1.509 1.948m-3.028 4.284h9.65v-.8q0-.141-.16-.141h-9.348q-.16.018-.142.141Zm9.65 1.045h-9.65v1.115h9.65Zm-1.753-10.464a23 23 0 0 1-2.975-1.434 24 24 0 0 1-2.674 1.434Zm1.275 3.966a10.4 10.4 0 0 1-1.47 1.558h2.851q.087-.017.088-.089v-2.3q-.018-.053-.088-.036h-5.029v2.426h1.7l-.514-.531a14.6 14.6 0 0 0 1.683-1.735Z"/></g></g></g></svg>